<svg width="26" height="21" viewBox="0 0 26 21" fill="none" xmlns="http://www.w3.org/2000/svg">
<path opacity="0.25" d="M0.274375 15.482C1.86438 13.468 2.94204 11.719 3.50738 10.235L0.433375 5.624C0.433375 4.81133 0.645375 4.01633 1.06938 3.239C1.52871 2.42633 2.16471 1.77267 2.97738 1.278C3.79004 0.783332 4.70871 0.535999 5.73338 0.535999C7.25271 0.535999 8.54238 1.08367 9.60238 2.179C10.6624 3.239 11.1924 4.59933 11.1924 6.26C11.1924 8.20333 10.415 10.4117 8.86038 12.885C7.30571 15.3583 4.86771 17.761 1.54638 20.093L0.274375 15.482ZM14.1604 15.482C15.7504 13.468 16.828 11.719 17.3934 10.235L14.3194 5.624C14.3194 4.81133 14.5314 4.01633 14.9554 3.239C15.4147 2.42633 16.0507 1.77267 16.8634 1.278C17.676 0.783332 18.5947 0.535999 19.6194 0.535999C21.1387 0.535999 22.4284 1.08367 23.4884 2.179C24.5484 3.239 25.0784 4.59933 25.0784 6.26C25.0784 8.20333 24.301 10.4117 22.7464 12.885C21.1917 15.3583 18.7537 17.761 15.4324 20.093L14.1604 15.482Z" fill="#FFA800"/>
</svg>
