<svg width="26" height="21" viewBox="0 0 26 21" fill="none" xmlns="http://www.w3.org/2000/svg">
<path opacity="0.25" d="M6.374 20.093C4.85467 20.093 3.565 19.563 2.505 18.503C1.445 17.4077 0.915 16.0297 0.915 14.369C0.915 12.4257 1.69233 10.2173 3.247 7.744C4.80167 5.27066 7.23967 2.868 10.561 0.535999L11.833 5.147C10.243 7.161 9.16533 8.91 8.6 10.394L11.674 15.005C11.674 15.8177 11.4443 16.6303 10.985 17.443C10.561 18.2203 9.94267 18.8563 9.13 19.351C8.31733 19.8457 7.39867 20.093 6.374 20.093ZM20.26 20.093C18.7407 20.093 17.451 19.563 16.391 18.503C15.331 17.4077 14.801 16.0297 14.801 14.369C14.801 12.4257 15.5783 10.2173 17.133 7.744C18.6877 5.27066 21.1257 2.868 24.447 0.535999L25.719 5.147C24.129 7.161 23.0513 8.91 22.486 10.394L25.56 15.005C25.56 15.8177 25.3303 16.6303 24.871 17.443C24.447 18.2203 23.8287 18.8563 23.016 19.351C22.2033 19.8457 21.2847 20.093 20.26 20.093Z" fill="#FFA800"/>
</svg>
